<svg xmlns="http://www.w3.org/2000/svg" viewBox="0 0 1289.92 133"><defs><style>.a,.h{fill:#fff;}.b,.f{fill:#2e3192;}.c,.f{font-size:60px;}.c,.h{font-family:SpaceGrotesk-Bold, Space Grotesk;}.c,.f,.h{font-weight:700;}.d{letter-spacing:-0.01em;}.e{letter-spacing:0em;}.f{font-family:SpaceMono-BoldItalic, Space Mono;font-style:italic;}.g{letter-spacing:-0.04em;}.h{font-size:72px;}</style></defs><rect class="a" x="3" y="3" width="366" height="127" rx="21.17"/><path class="b" d="M347.83,6A18.19,18.19,0,0,1,366,24.17v84.66A18.19,18.19,0,0,1,347.83,127H24.17A18.19,18.19,0,0,1,6,108.83V24.17A18.19,18.19,0,0,1,24.17,6H347.83m0-6H24.17A24.17,24.17,0,0,0,0,24.17v84.66A24.17,24.17,0,0,0,24.17,133H347.83A24.17,24.17,0,0,0,372,108.83V24.17A24.17,24.17,0,0,0,347.83,0Z"/><text class="c" transform="translate(94.64 83.78)">fibon<tspan class="d" x="152.4" y="0">(6</tspan><tspan class="e" x="212.16" y="0">)</tspan></text><text class="f" transform="translate(42.64 81.2)">f</text><rect class="a" x="484.28" y="3" width="366" height="127" rx="21.17"/><path class="b" d="M829.11,6a18.19,18.19,0,0,1,18.17,18.17v84.66A18.19,18.19,0,0,1,829.11,127H505.45a18.19,18.19,0,0,1-18.17-18.17V24.17A18.19,18.19,0,0,1,505.45,6H829.11m0-6H505.45a24.17,24.17,0,0,0-24.17,24.17v84.66A24.17,24.17,0,0,0,505.45,133H829.11a24.17,24.17,0,0,0,24.17-24.17V24.17A24.17,24.17,0,0,0,829.11,0Z"/><text class="c" transform="translate(575.92 83.78)">fibon(5)</text><text class="f" transform="translate(523.92 81.2)">f</text><rect class="a" x="920.92" y="3" width="366" height="127" rx="21.17"/><path class="b" d="M1265.75,6a18.19,18.19,0,0,1,18.17,18.17v84.66A18.19,18.19,0,0,1,1265.75,127H942.09a18.19,18.19,0,0,1-18.17-18.17V24.17A18.19,18.19,0,0,1,942.09,6h323.66m0-6H942.09a24.17,24.17,0,0,0-24.17,24.17v84.66A24.17,24.17,0,0,0,942.09,133h323.66a24.17,24.17,0,0,0,24.17-24.17V24.17A24.17,24.17,0,0,0,1265.75,0Z"/><text class="c" transform="translate(1012.56 83.78)">fibon<tspan class="g" x="152.4" y="0">(</tspan><tspan x="173.88" y="0">4)</tspan></text><text class="f" transform="translate(960.56 81.2)">f</text><text class="h" transform="translate(382 87.24)">=&gt;</text><text class="h" transform="translate(863.28 87.24)">+</text></svg>