<svg xmlns="http://www.w3.org/2000/svg" viewBox="0 0 3716 987"><defs><style>.a,.i{fill:#fff;}.b,.f{fill:#2e3192;}.c,.f,.i,.k{font-size:60px;font-weight:700;}.c,.i{font-family:SpaceGrotesk-Bold, Space Grotesk;}.d{letter-spacing:-0.01em;}.e{letter-spacing:0em;}.f,.k{font-family:SpaceMono-BoldItalic, Space Mono;font-style:italic;}.g{fill:#fbb03b;}.h,.k{fill:#ed1c24;}.j{letter-spacing:-0.04em;}.l{letter-spacing:-0.03em;}.m{letter-spacing:0em;}</style></defs><rect class="a" x="1675" y="3" width="366" height="127" rx="21.17"/><path class="b" d="M2019.83,6A18.19,18.19,0,0,1,2038,24.17v84.66A18.19,18.19,0,0,1,2019.83,127H1696.17A18.19,18.19,0,0,1,1678,108.83V24.17A18.19,18.19,0,0,1,1696.17,6h323.66m0-6H1696.17A24.17,24.17,0,0,0,1672,24.17v84.66A24.17,24.17,0,0,0,1696.17,133h323.66A24.17,24.17,0,0,0,2044,108.83V24.17A24.17,24.17,0,0,0,2019.83,0Z"/><text class="c" transform="translate(1766.64 83.78)">fibon<tspan class="d" x="152.4" y="0">(6</tspan><tspan class="e" x="212.16" y="0">)</tspan></text><text class="f" transform="translate(1714.64 81.2)">f</text><rect class="a" x="811" y="277" width="366" height="127" rx="21.17"/><path class="b" d="M1155.83,280A18.19,18.19,0,0,1,1174,298.17v84.66A18.19,18.19,0,0,1,1155.83,401H832.17A18.19,18.19,0,0,1,814,382.83V298.17A18.19,18.19,0,0,1,832.17,280h323.66m0-6H832.17A24.17,24.17,0,0,0,808,298.17v84.66A24.17,24.17,0,0,0,832.17,407h323.66A24.17,24.17,0,0,0,1180,382.83V298.17A24.17,24.17,0,0,0,1155.83,274Z"/><text class="c" transform="translate(902.64 357.78)">fibon(5)</text><text class="f" transform="translate(850.64 355.2)">f</text><rect class="g" x="334" y="460" width="366" height="127" rx="21.17"/><path class="h" d="M678.83,463A18.19,18.19,0,0,1,697,481.17v84.66A18.19,18.19,0,0,1,678.83,584H355.17A18.19,18.19,0,0,1,337,565.83V481.17A18.19,18.19,0,0,1,355.17,463H678.83m0-6H355.17A24.17,24.17,0,0,0,331,481.17v84.66A24.17,24.17,0,0,0,355.17,590H678.83A24.17,24.17,0,0,0,703,565.83V481.17A24.17,24.17,0,0,0,678.83,457Z"/><text class="i" transform="translate(425.64 540.78)">fibon<tspan class="j" x="152.4" y="0">(</tspan><tspan x="173.88" y="0">4)</tspan></text><text class="k" transform="translate(373.64 538.2)">f</text><rect class="g" x="68" y="637" width="366" height="127" rx="21.17"/><path class="h" d="M412.83,640A18.19,18.19,0,0,1,431,658.17v84.66A18.19,18.19,0,0,1,412.83,761H89.17A18.19,18.19,0,0,1,71,742.83V658.17A18.19,18.19,0,0,1,89.17,640H412.83m0-6H89.17A24.17,24.17,0,0,0,65,658.17v84.66A24.17,24.17,0,0,0,89.17,767H412.83A24.17,24.17,0,0,0,437,742.83V658.17A24.17,24.17,0,0,0,412.83,634Z"/><text class="i" transform="translate(159.64 717.78)">fibon(3)</text><text class="k" transform="translate(107.64 715.2)">f</text><rect class="g" x="133" y="829" width="366" height="127" rx="21.17"/><path class="h" d="M477.83,832A18.19,18.19,0,0,1,496,850.17v84.66A18.19,18.19,0,0,1,477.83,953H154.17A18.19,18.19,0,0,1,136,934.83V850.17A18.19,18.19,0,0,1,154.17,832H477.83m0-6H154.17A24.17,24.17,0,0,0,130,850.17v84.66A24.17,24.17,0,0,0,154.17,959H477.83A24.17,24.17,0,0,0,502,934.83V850.17A24.17,24.17,0,0,0,477.83,826Z"/><text class="i" transform="translate(224.64 909.78)">fibon<tspan class="l" x="152.4" y="0">(</tspan><tspan x="174.48" y="0">1)</tspan></text><text class="k" transform="translate(192.64 907.2)">f</text><rect class="g" x="3" y="790" width="366" height="127" rx="21.17"/><path class="h" d="M347.83,793A18.19,18.19,0,0,1,366,811.17v84.66A18.19,18.19,0,0,1,347.83,914H24.17A18.19,18.19,0,0,1,6,895.83V811.17A18.19,18.19,0,0,1,24.17,793H347.83m0-6H24.17A24.17,24.17,0,0,0,0,811.17v84.66A24.17,24.17,0,0,0,24.17,920H347.83A24.17,24.17,0,0,0,372,895.83V811.17A24.17,24.17,0,0,0,347.83,787Z"/><text class="i" transform="translate(94.64 870.78)">fibon<tspan class="m" x="152.4" y="0">(</tspan><tspan x="176.04" y="0">2)</tspan></text><text class="k" transform="translate(42.64 868.2)">f</text><rect class="g" x="600" y="637" width="366" height="127" rx="21.17"/><path class="h" d="M944.83,640A18.19,18.19,0,0,1,963,658.17v84.66A18.19,18.19,0,0,1,944.83,761H621.17A18.19,18.19,0,0,1,603,742.83V658.17A18.19,18.19,0,0,1,621.17,640H944.83m0-6H621.17A24.17,24.17,0,0,0,597,658.17v84.66A24.17,24.17,0,0,0,621.17,767H944.83A24.17,24.17,0,0,0,969,742.83V658.17A24.17,24.17,0,0,0,944.83,634Z"/><text class="i" transform="translate(691.64 717.78)">fibon<tspan class="m" x="152.4" y="0">(</tspan><tspan x="176.04" y="0">2)</tspan></text><text class="k" transform="translate(639.64 715.2)">f</text><rect class="g" x="665" y="829" width="366" height="127" rx="21.17"/><path class="h" d="M1009.83,832A18.19,18.19,0,0,1,1028,850.17v84.66A18.19,18.19,0,0,1,1009.83,953H686.17A18.19,18.19,0,0,1,668,934.83V850.17A18.19,18.19,0,0,1,686.17,832h323.66m0-6H686.17A24.17,24.17,0,0,0,662,850.17v84.66A24.17,24.17,0,0,0,686.17,959h323.66A24.17,24.17,0,0,0,1034,934.83V850.17A24.17,24.17,0,0,0,1009.83,826Z"/><text class="i" transform="translate(756.64 909.78)">fibon<tspan class="d" x="152.4" y="0">(0</tspan><tspan class="e" x="213.96" y="0">)</tspan></text><text class="k" transform="translate(724.64 907.2)">f</text><rect class="g" x="535" y="790" width="366" height="127" rx="21.17"/><path class="h" d="M879.83,793A18.19,18.19,0,0,1,898,811.17v84.66A18.19,18.19,0,0,1,879.83,914H556.17A18.19,18.19,0,0,1,538,895.83V811.17A18.19,18.19,0,0,1,556.17,793H879.83m0-6H556.17A24.17,24.17,0,0,0,532,811.17v84.66A24.17,24.17,0,0,0,556.17,920H879.83A24.17,24.17,0,0,0,904,895.83V811.17A24.17,24.17,0,0,0,879.83,787Z"/><text class="i" transform="translate(626.64 870.78)">fibon<tspan class="l" x="152.4" y="0">(</tspan><tspan x="174.48" y="0">1)</tspan></text><text class="k" transform="translate(574.64 868.2)">f</text><rect class="a" x="1353" y="461" width="366" height="127" rx="21.17"/><path class="b" d="M1697.83,464A18.19,18.19,0,0,1,1716,482.17v84.66A18.19,18.19,0,0,1,1697.83,585H1374.17A18.19,18.19,0,0,1,1356,566.83V482.17A18.19,18.19,0,0,1,1374.17,464h323.66m0-6H1374.17A24.17,24.17,0,0,0,1350,482.17v84.66A24.17,24.17,0,0,0,1374.17,591h323.66A24.17,24.17,0,0,0,1722,566.83V482.17A24.17,24.17,0,0,0,1697.83,458Z"/><text class="c" transform="translate(1444.64 541.78)">fibon(3)</text><text class="f" transform="translate(1392.64 539.2)">f</text><rect class="a" x="1619" y="637" width="366" height="127" rx="21.17"/><path class="b" d="M1963.83,640A18.19,18.19,0,0,1,1982,658.17v84.66A18.19,18.19,0,0,1,1963.83,761H1640.17A18.19,18.19,0,0,1,1622,742.83V658.17A18.19,18.19,0,0,1,1640.17,640h323.66m0-6H1640.17A24.17,24.17,0,0,0,1616,658.17v84.66A24.17,24.17,0,0,0,1640.17,767h323.66A24.17,24.17,0,0,0,1988,742.83V658.17A24.17,24.17,0,0,0,1963.83,634Z"/><text class="c" transform="translate(1710.64 717.78)">fibon<tspan class="l" x="152.4" y="0">(</tspan><tspan x="174.48" y="0">1)</tspan></text><text class="f" transform="translate(1658.64 715.2)">f</text><rect class="a" x="1748.5" y="790" width="107" height="127" rx="10.32"/><path class="b" d="M1845.18,793a7.32,7.32,0,0,1,7.32,7.32V906.68a7.32,7.32,0,0,1-7.32,7.32h-86.36a7.32,7.32,0,0,1-7.32-7.32V800.32a7.32,7.32,0,0,1,7.32-7.32h86.36m0-6h-86.36a13.32,13.32,0,0,0-13.32,13.32V906.68A13.32,13.32,0,0,0,1758.82,920h86.36a13.32,13.32,0,0,0,13.32-13.32V800.32A13.32,13.32,0,0,0,1845.18,787Z"/><text class="c" transform="translate(1788.44 870.78)">1</text><rect class="g" x="1152" y="637" width="366" height="127" rx="21.17"/><path class="h" d="M1496.83,640A18.19,18.19,0,0,1,1515,658.17v84.66A18.19,18.19,0,0,1,1496.83,761H1173.17A18.19,18.19,0,0,1,1155,742.83V658.17A18.19,18.19,0,0,1,1173.17,640h323.66m0-6H1173.17A24.17,24.17,0,0,0,1149,658.17v84.66A24.17,24.17,0,0,0,1173.17,767h323.66A24.17,24.17,0,0,0,1521,742.83V658.17A24.17,24.17,0,0,0,1496.83,634Z"/><text class="i" transform="translate(1243.64 717.78)">fibon<tspan class="m" x="152.4" y="0">(</tspan><tspan x="176.04" y="0">2)</tspan></text><text class="k" transform="translate(1191.64 715.2)">f</text><rect class="g" x="1217" y="829" width="366" height="127" rx="21.17"/><path class="h" d="M1561.83,832A18.19,18.19,0,0,1,1580,850.17v84.66A18.19,18.19,0,0,1,1561.83,953H1238.17A18.19,18.19,0,0,1,1220,934.83V850.17A18.19,18.19,0,0,1,1238.17,832h323.66m0-6H1238.17A24.17,24.17,0,0,0,1214,850.17v84.66A24.17,24.17,0,0,0,1238.17,959h323.66A24.17,24.17,0,0,0,1586,934.83V850.17A24.17,24.17,0,0,0,1561.83,826Z"/><text class="i" transform="translate(1308.64 909.78)">fibon<tspan class="d" x="152.4" y="0">(0</tspan><tspan class="e" x="213.96" y="0">)</tspan></text><text class="k" transform="translate(1276.64 907.2)">f</text><rect class="g" x="1087" y="790" width="366" height="127" rx="21.17"/><path class="h" d="M1431.83,793A18.19,18.19,0,0,1,1450,811.17v84.66A18.19,18.19,0,0,1,1431.83,914H1108.17A18.19,18.19,0,0,1,1090,895.83V811.17A18.19,18.19,0,0,1,1108.17,793h323.66m0-6H1108.17A24.17,24.17,0,0,0,1084,811.17v84.66A24.17,24.17,0,0,0,1108.17,920h323.66A24.17,24.17,0,0,0,1456,895.83V811.17A24.17,24.17,0,0,0,1431.83,787Z"/><text class="i" transform="translate(1178.64 870.78)">fibon<tspan class="l" x="152.4" y="0">(</tspan><tspan x="174.48" y="0">1)</tspan></text><text class="k" transform="translate(1126.64 868.2)">f</text><rect class="a" x="2694" y="292" width="366" height="127" rx="21.17"/><path class="b" d="M3038.83,295A18.19,18.19,0,0,1,3057,313.17v84.66A18.19,18.19,0,0,1,3038.83,416H2715.17A18.19,18.19,0,0,1,2697,397.83V313.17A18.19,18.19,0,0,1,2715.17,295h323.66m0-6H2715.17A24.17,24.17,0,0,0,2691,313.17v84.66A24.17,24.17,0,0,0,2715.17,422h323.66A24.17,24.17,0,0,0,3063,397.83V313.17A24.17,24.17,0,0,0,3038.83,289Z"/><text class="c" transform="translate(2785.64 372.78)">fibon<tspan class="j" x="152.4" y="0">(</tspan><tspan x="173.88" y="0">4)</tspan></text><text class="f" transform="translate(2733.64 370.2)">f</text><rect class="g" x="3085" y="812" width="107" height="127" rx="10.32"/><path class="h" d="M3181.68,815a7.32,7.32,0,0,1,7.32,7.32V928.68a7.32,7.32,0,0,1-7.32,7.32h-86.36a7.32,7.32,0,0,1-7.32-7.32V822.32a7.32,7.32,0,0,1,7.32-7.32h86.36m0-6h-86.36A13.32,13.32,0,0,0,3082,822.32V928.68A13.32,13.32,0,0,0,3095.32,942h86.36A13.32,13.32,0,0,0,3195,928.68V822.32A13.32,13.32,0,0,0,3181.68,809Z"/><text class="i" transform="translate(3124.94 892.78)">1</text><rect class="g" x="2955" y="659" width="366" height="127" rx="21.17"/><path class="h" d="M3299.83,662A18.19,18.19,0,0,1,3318,680.17v84.66A18.19,18.19,0,0,1,3299.83,783H2976.17A18.19,18.19,0,0,1,2958,764.83V680.17A18.19,18.19,0,0,1,2976.17,662h323.66m0-6H2976.17A24.17,24.17,0,0,0,2952,680.17v84.66A24.17,24.17,0,0,0,2976.17,789h323.66A24.17,24.17,0,0,0,3324,764.83V680.17A24.17,24.17,0,0,0,3299.83,656Z"/><text class="i" transform="translate(3046.64 739.78)">fibon<tspan class="l" x="152.4" y="0">(</tspan><tspan x="174.48" y="0">1)</tspan></text><text class="k" transform="translate(2994.64 737.2)">f</text><rect class="a" x="3476.5" y="812" width="107" height="127" rx="10.32"/><path class="b" d="M3573.18,815a7.32,7.32,0,0,1,7.32,7.32V928.68a7.32,7.32,0,0,1-7.32,7.32h-86.36a7.32,7.32,0,0,1-7.32-7.32V822.32a7.32,7.32,0,0,1,7.32-7.32h86.36m0-6h-86.36a13.32,13.32,0,0,0-13.32,13.32V928.68A13.32,13.32,0,0,0,3486.82,942h86.36a13.32,13.32,0,0,0,13.32-13.32V822.32A13.32,13.32,0,0,0,3573.18,809Z"/><text class="c" transform="translate(3510.56 892.78)">0</text><rect class="a" x="3347" y="659" width="366" height="127" rx="21.17"/><path class="b" d="M3691.83,662A18.19,18.19,0,0,1,3710,680.17v84.66A18.19,18.19,0,0,1,3691.83,783H3368.17A18.19,18.19,0,0,1,3350,764.83V680.17A18.19,18.19,0,0,1,3368.17,662h323.66m0-6H3368.17A24.17,24.17,0,0,0,3344,680.17v84.66A24.17,24.17,0,0,0,3368.17,789h323.66A24.17,24.17,0,0,0,3716,764.83V680.17A24.17,24.17,0,0,0,3691.83,656Z"/><text class="c" transform="translate(3438.64 739.78)">fibon<tspan class="d" x="152.4" y="0">(0</tspan><tspan class="e" x="213.96" y="0">)</tspan></text><text class="f" transform="translate(3386.64 737.2)">f</text><rect class="a" x="3151" y="476" width="366" height="127" rx="21.17"/><path class="b" d="M3495.83,479A18.19,18.19,0,0,1,3514,497.17v84.66A18.19,18.19,0,0,1,3495.83,600H3172.17A18.19,18.19,0,0,1,3154,581.83V497.17A18.19,18.19,0,0,1,3172.17,479h323.66m0-6H3172.17A24.17,24.17,0,0,0,3148,497.17v84.66A24.17,24.17,0,0,0,3172.17,606h323.66A24.17,24.17,0,0,0,3520,581.83V497.17A24.17,24.17,0,0,0,3495.83,473Z"/><text class="c" transform="translate(3242.64 556.78)">fibon<tspan class="m" x="152.4" y="0">(</tspan><tspan x="176.04" y="0">2)</tspan></text><text class="f" transform="translate(3190.64 554.2)">f</text><rect class="g" x="2302" y="475" width="366" height="127" rx="21.17"/><path class="h" d="M2646.83,478A18.19,18.19,0,0,1,2665,496.17v84.66A18.19,18.19,0,0,1,2646.83,599H2323.17A18.19,18.19,0,0,1,2305,580.83V496.17A18.19,18.19,0,0,1,2323.17,478h323.66m0-6H2323.17A24.17,24.17,0,0,0,2299,496.17v84.66A24.17,24.17,0,0,0,2323.17,605h323.66A24.17,24.17,0,0,0,2671,580.83V496.17A24.17,24.17,0,0,0,2646.83,472Z"/><text class="i" transform="translate(2393.64 555.78)">fibon(3)</text><text class="k" transform="translate(2341.64 553.2)">f</text><rect class="g" x="2692.5" y="857" width="107" height="127" rx="10.32"/><path class="h" d="M2789.18,860a7.32,7.32,0,0,1,7.32,7.32V973.68a7.32,7.32,0,0,1-7.32,7.32h-86.36a7.32,7.32,0,0,1-7.32-7.32V867.32a7.32,7.32,0,0,1,7.32-7.32h86.36m0-6h-86.36a13.32,13.32,0,0,0-13.32,13.32V973.68A13.32,13.32,0,0,0,2702.82,987h86.36a13.32,13.32,0,0,0,13.32-13.32V867.32A13.32,13.32,0,0,0,2789.18,854Z"/><text class="i" transform="translate(2732.44 937.78)">1</text><rect class="g" x="2563" y="658" width="366" height="127" rx="21.17"/><path class="h" d="M2907.83,661A18.19,18.19,0,0,1,2926,679.17v84.66A18.19,18.19,0,0,1,2907.83,782H2584.17A18.19,18.19,0,0,1,2566,763.83V679.17A18.19,18.19,0,0,1,2584.17,661h323.66m0-6H2584.17A24.17,24.17,0,0,0,2560,679.17v84.66A24.17,24.17,0,0,0,2584.17,788h323.66A24.17,24.17,0,0,0,2932,763.83V679.17A24.17,24.17,0,0,0,2907.83,655Z"/><text class="i" transform="translate(2654.64 738.78)">fibon<tspan class="l" x="152.4" y="0">(</tspan><tspan x="174.48" y="0">1)</tspan></text><text class="k" transform="translate(2602.64 736.2)">f</text><rect class="g" x="2106" y="658" width="366" height="127" rx="21.17"/><path class="h" d="M2450.83,661A18.19,18.19,0,0,1,2469,679.17v84.66A18.19,18.19,0,0,1,2450.83,782H2127.17A18.19,18.19,0,0,1,2109,763.83V679.17A18.19,18.19,0,0,1,2127.17,661h323.66m0-6H2127.17A24.17,24.17,0,0,0,2103,679.17v84.66A24.17,24.17,0,0,0,2127.17,788h323.66A24.17,24.17,0,0,0,2475,763.83V679.17A24.17,24.17,0,0,0,2450.83,655Z"/><text class="i" transform="translate(2197.64 738.78)">fibon<tspan class="m" x="152.4" y="0">(</tspan><tspan x="176.04" y="0">2)</tspan></text><text class="k" transform="translate(2145.64 736.2)">f</text><rect class="g" x="2171" y="850" width="366" height="127" rx="21.17"/><path class="h" d="M2515.83,853A18.19,18.19,0,0,1,2534,871.17v84.66A18.19,18.19,0,0,1,2515.83,974H2192.17A18.19,18.19,0,0,1,2174,955.83V871.17A18.19,18.19,0,0,1,2192.17,853h323.66m0-6H2192.17A24.17,24.17,0,0,0,2168,871.17v84.66A24.17,24.17,0,0,0,2192.17,980h323.66A24.17,24.17,0,0,0,2540,955.83V871.17A24.17,24.17,0,0,0,2515.83,847Z"/><text class="i" transform="translate(2262.64 930.78)">fibon<tspan class="d" x="152.4" y="0">(0</tspan><tspan class="e" x="213.96" y="0">)</tspan></text><text class="k" transform="translate(2230.64 928.2)">f</text><rect class="g" x="2041" y="811" width="366" height="127" rx="21.17"/><path class="h" d="M2385.83,814A18.19,18.19,0,0,1,2404,832.17v84.66A18.19,18.19,0,0,1,2385.83,935H2062.17A18.19,18.19,0,0,1,2044,916.83V832.17A18.19,18.19,0,0,1,2062.17,814h323.66m0-6H2062.17A24.17,24.17,0,0,0,2038,832.17v84.66A24.17,24.17,0,0,0,2062.17,941h323.66A24.17,24.17,0,0,0,2410,916.83V832.17A24.17,24.17,0,0,0,2385.83,808Z"/><text class="i" transform="translate(2132.64 891.78)">fibon<tspan class="l" x="152.4" y="0">(</tspan><tspan x="174.48" y="0">1)</tspan></text><text class="k" transform="translate(2080.64 889.2)">f</text></svg>