<svg xmlns="http://www.w3.org/2000/svg" viewBox="0 0 853 133"><defs><style>.a,.g{fill:#fff;}.b,.c{fill:#2e3192;}.c,.d{font-size:60px;}.c{font-family:SpaceMono-BoldItalic, Space Mono;font-style:italic;}.c,.d,.g{font-weight:700;}.d,.g{font-family:SpaceGrotesk-Bold, Space Grotesk;}.e{letter-spacing:-0.01em;}.f{letter-spacing:0em;}.g{font-size:72px;}</style></defs><rect class="a" x="484" y="3" width="366" height="127" rx="21.17"/><path class="b" d="M828.83,6A18.19,18.19,0,0,1,847,24.17v84.66A18.19,18.19,0,0,1,828.83,127H505.17A18.19,18.19,0,0,1,487,108.83V24.17A18.19,18.19,0,0,1,505.17,6H828.83m0-6H505.17A24.17,24.17,0,0,0,481,24.17v84.66A24.17,24.17,0,0,0,505.17,133H828.83A24.17,24.17,0,0,0,853,108.83V24.17A24.17,24.17,0,0,0,828.83,0Z"/><text class="c" transform="translate(648.64 81.2)">0</text><rect class="a" x="3" y="3" width="366" height="127" rx="21.17"/><path class="b" d="M347.83,6A18.19,18.19,0,0,1,366,24.17v84.66A18.19,18.19,0,0,1,347.83,127H24.17A18.19,18.19,0,0,1,6,108.83V24.17A18.19,18.19,0,0,1,24.17,6H347.83m0-6H24.17A24.17,24.17,0,0,0,0,24.17v84.66A24.17,24.17,0,0,0,24.17,133H347.83A24.17,24.17,0,0,0,372,108.83V24.17A24.17,24.17,0,0,0,347.83,0Z"/><text class="d" transform="translate(94.64 83.78)">fibon<tspan class="e" x="152.4" y="0">(0</tspan><tspan class="f" x="213.96" y="0">)</tspan></text><text class="c" transform="translate(42.64 81.2)">f</text><text class="g" transform="translate(382 87.24)">=&gt;</text></svg>