<svg xmlns="http://www.w3.org/2000/svg" viewBox="0 0 812 286"><defs><style>.cls-1{fill:#fbb03b;}.cls-2{fill:#fff;}</style></defs><g id="Layer_1" data-name="Layer 1"><path class="cls-1" d="M792,20V266H20V20H792M812,0H0V286H812V0Z"/><path class="cls-2" d="M196.2,166H141.4l-10.2,28.8H98L151.4,53H188l52.8,141.8H206.4Zm-44.4-28.8h34.4l-17-49Z"/><path class="cls-2" d="M319.2,125.4a41.26,41.26,0,0,0-9.6-1c-12.2,0-23.2,7.2-23.2,27v43.4H256V95.4h29.4v13.4c5.2-11.2,17.8-14.4,25.8-14.4a30,30,0,0,1,8,1Z"/><path class="cls-2" d="M400.8,125.4a41.26,41.26,0,0,0-9.6-1c-12.2,0-23.2,7.2-23.2,27v43.4H337.6V95.4H367v13.4c5.2-11.2,17.8-14.4,25.8-14.4a30,30,0,0,1,8,1Z"/><path class="cls-2" d="M443.4,137.4l23.4-3.6c5.4-.8,7.2-3.4,7.2-6.8,0-5.8-5-10.8-14.6-10.8-10.6,0-16.4,7.2-17,14.6L416,125.4c1.2-14.2,14.4-33,43.6-33,32.2,0,44,18,44,38.4v48.6a97.68,97.68,0,0,0,1.2,15.4H477.4a48.62,48.62,0,0,1-1-11.2c-5.2,8.4-14.8,14-28,14-21.8,0-34.4-14.4-34.4-30.2C414,149.8,427,139.8,443.4,137.4ZM474,155.8v-4.4l-18.8,3c-6.4,1-11.2,4-11.2,11,0,5.2,3.4,10.2,11.8,10.2C464.8,175.6,474,171.2,474,155.8Z"/><path class="cls-2" d="M533.2,233l22.6-51.6L514,95.4h34l24.2,53.2,22-53.2h32.2L565.2,233Z"/><path class="cls-2" d="M658.2,162c.4,6.8,5.2,13.4,15.6,13.4,7.8,0,11.6-4.2,11.6-8.6,0-3.6-2.4-6.6-9.8-8.2L664.2,156c-21.2-4.6-29.6-16.6-29.6-30.6,0-18.2,16-33,38.2-33,28.8,0,38.8,18,39.8,29.6l-25.2,4.6c-.8-6.6-5-12.2-14.2-12.2-5.8,0-10.8,3.4-10.8,8.6,0,4.2,3.4,6.6,7.8,7.4l13.2,2.6c20.6,4.2,30.6,16.6,30.6,31.2,0,17-13,33.6-39.6,33.6-31.2,0-41.2-20.2-42-31.2Z"/></g></svg>