<svg xmlns="http://www.w3.org/2000/svg" viewBox="0 0 950 201"><defs><style>.cls-1{fill:#39b54a;}.cls-2{fill:#e6e6e6;}</style></defs><g id="Layer_1" data-name="Layer 1"><path class="cls-1" d="M944,6V195H6V6H944m6-6H0V201H950V0Z"/><path class="cls-2" d="M134.72,130.43a35.63,35.63,0,0,1-3.57,16.26,33.39,33.39,0,0,1-10.15,12,47.54,47.54,0,0,1-15.92,7.43,79.1,79.1,0,0,1-20.75,2.54H50.93V41H87.45Q130.13,41,130.13,72a31.46,31.46,0,0,1-4.93,17.78q-4.94,7.41-16.07,11a37,37,0,0,1,9.82,3.32,29.22,29.22,0,0,1,8.15,6.06,27.75,27.75,0,0,1,5.57,8.79A30.38,30.38,0,0,1,134.72,130.43ZM112.06,74.38A23,23,0,0,0,110.89,67a13.31,13.31,0,0,0-4.1-6,21.54,21.54,0,0,0-7.91-4,45.78,45.78,0,0,0-12.6-1.46h-18V95.57H85.69A42.32,42.32,0,0,0,96.48,94.3a23.42,23.42,0,0,0,8.31-3.91,18,18,0,0,0,5.37-6.59A21.54,21.54,0,0,0,112.06,74.38Zm4.2,56.64a18.56,18.56,0,0,0-2.05-8.79,18.26,18.26,0,0,0-6-6.59,29.93,29.93,0,0,0-9.52-4.15A50,50,0,0,0,86.08,110H68.31v44H86.67q14.94,0,22.27-5.57T116.26,131Z"/><path class="cls-2" d="M224.07,168.62l-.39-13.19a53.19,53.19,0,0,1-16.26,11.43,43.83,43.83,0,0,1-17.33,3.51,42.29,42.29,0,0,1-14.36-2.15,26.92,26.92,0,0,1-9.81-5.9,23.07,23.07,0,0,1-5.67-8.84,32.82,32.82,0,0,1-1.8-11q0-14.74,11-23.09T201.9,111h20.32v-8.6q0-8.69-5.57-13.91t-17-5.23a72.46,72.46,0,0,0-16.36,1.86,115.23,115.23,0,0,0-16.65,5.27V75.06c2.15-.78,4.54-1.55,7.18-2.29s5.42-1.42,8.35-2,6-1.05,9.18-1.41a86.12,86.12,0,0,1,9.67-.54,60.69,60.69,0,0,1,16,2,32.63,32.63,0,0,1,12.06,6,26.2,26.2,0,0,1,7.57,10.06A35.48,35.48,0,0,1,239.31,101v67.58ZM222.22,124H200.63a41.18,41.18,0,0,0-10.93,1.27,20.67,20.67,0,0,0-7.52,3.61,14.48,14.48,0,0,0-4.35,5.61,18.5,18.5,0,0,0-1.41,7.38,16.91,16.91,0,0,0,.87,5.42,12.11,12.11,0,0,0,2.84,4.59,13.64,13.64,0,0,0,5.08,3.17,21.78,21.78,0,0,0,7.61,1.17q5.87,0,13.43-3.56a65.94,65.94,0,0,0,16-11.28Z"/><path class="cls-2" d="M347.22,165a72.67,72.67,0,0,1-13.63,3.76,82.79,82.79,0,0,1-14.4,1.22q-23.25,0-35.79-12.6t-12.55-36.81a58.8,58.8,0,0,1,3.61-21.1,47.15,47.15,0,0,1,10.16-16.21,44.9,44.9,0,0,1,15.62-10.4,53.12,53.12,0,0,1,20-3.66,88.93,88.93,0,0,1,14.26,1.08,58.6,58.6,0,0,1,12.7,3.51V90a54.25,54.25,0,0,0-12.94-4.83,60.71,60.71,0,0,0-13.63-1.52,31,31,0,0,0-12.35,2.49,30.22,30.22,0,0,0-10.2,7.18,34.06,34.06,0,0,0-6.94,11.43A43,43,0,0,0,288.62,120q0,17.78,8.65,26.61t24,8.84a57.33,57.33,0,0,0,13.43-1.56,55.34,55.34,0,0,0,12.55-4.69Z"/><path class="cls-2" d="M469.19,168.62H445.85l-45.7-52.54v52.54h-17v-138h17v84.76l44-44.82h22.46l-46,45.21Z"/><path class="cls-2" d="M677.49,168.62H604.93V41h72.56V55.63H622.31V95.18h53v14.65h-53v43.94h55.18Z"/><path class="cls-2" d="M710.89,70.57H726l.68,15.82a70.37,70.37,0,0,1,8.3-8.45,46.11,46.11,0,0,1,7.86-5.42,29.18,29.18,0,0,1,7.86-2.88,41.06,41.06,0,0,1,8.3-.83q15.13,0,22.9,8.94t7.77,26.9v64h-17V106q0-11.52-4.3-17t-12.79-5.52a20.39,20.39,0,0,0-6.11.93,22.36,22.36,0,0,0-6.2,3.22,51,51,0,0,0-7,6.2q-3.76,3.91-8.45,9.77v65h-17Z"/><path class="cls-2" d="M815.87,121.64a66.67,66.67,0,0,1,3.42-22.21A45.52,45.52,0,0,1,829,83a41.14,41.14,0,0,1,15.14-10.16,53.49,53.49,0,0,1,19.68-3.46,72.27,72.27,0,0,1,9.23.58A59.26,59.26,0,0,1,882,71.84V30.63h17.09v138H883.84l-.59-18.56q-7.12,10.35-15.43,15.33a34.29,34.29,0,0,1-18,5A29.13,29.13,0,0,1,824.41,157,47.67,47.67,0,0,1,818,141.56,85.25,85.25,0,0,1,815.87,121.64Zm17.38-1.07q0,17.77,5.23,26.51t14.79,8.74q6.45,0,13.62-5.76T882,133V87.46a41.79,41.79,0,0,0-9.27-3,51,51,0,0,0-10.06-1q-13.87,0-21.63,9T833.25,120.57Z"/></g></svg>