<svg xmlns="http://www.w3.org/2000/svg" viewBox="0 0 976 286"><defs><style>.cls-1{fill:#fbb03b;}.cls-2{fill:#fff;}</style></defs><g id="Layer_1" data-name="Layer 1"><path class="cls-1" d="M956,20V266H20V20H956M976,0H0V286H976V0Z"/><path class="cls-2" d="M115.81,73.5c28,0,44.2,16.2,44.2,38,0,14.6-9.2,26.6-20.8,30.4,12.8,3,25.2,14.8,25.2,33.2,0,23.2-17.6,40.2-44.4,40.2H62.81V73.5Zm-5,56.8c11,0,18.2-5.8,18.2-15.4,0-9.2-6.2-15.2-18.6-15.2H93.61v30.6Zm2.6,59.2c12.2,0,19.6-6.4,19.6-16.6,0-9.8-7.2-16.6-19.6-16.6H93.61v33.2Z"/><path class="cls-2" d="M208.41,157.9l23.39-3.6c5.41-.8,7.21-3.4,7.21-6.8,0-5.8-5-10.8-14.61-10.8-10.6,0-16.39,7.2-17,14.6L181,145.9c1.2-14.2,14.4-33,43.6-33,32.19,0,44,18,44,38.4v48.6a97.68,97.68,0,0,0,1.2,15.4H242.4a49.28,49.28,0,0,1-1-11.2c-5.19,8.4-14.79,14-28,14-21.8,0-34.4-14.4-34.4-30.2C179,170.3,192,160.3,208.41,157.9ZM239,176.3v-4.4l-18.8,3c-6.41,1-11.2,4-11.2,11,0,5.2,3.4,10.2,11.79,10.2C229.8,196.1,239,191.7,239,176.3Z"/><path class="cls-2" d="M311.8,182.5c.4,6.8,5.2,13.4,15.6,13.4,7.8,0,11.6-4.2,11.6-8.6,0-3.6-2.4-6.6-9.8-8.2l-11.4-2.6c-21.2-4.6-29.6-16.6-29.6-30.6,0-18.2,16-33,38.2-33,28.8,0,38.8,18,39.8,29.6L341,147.1c-.8-6.6-5-12.2-14.2-12.2-5.8,0-10.8,3.4-10.8,8.6,0,4.2,3.4,6.6,7.8,7.4l13.2,2.6c20.6,4.2,30.6,16.6,30.6,31.2,0,17-13,33.6-39.6,33.6-31.2,0-41.2-20.2-42-31.2Z"/><path class="cls-2" d="M402.4,67.7a17.8,17.8,0,1,1-17.6,17.8A17.88,17.88,0,0,1,402.4,67.7Zm-15,147.6V115.9h30.4v99.4Z"/><path class="cls-2" d="M467.4,165.7c0,15.8,10.6,24.6,23.2,24.6,11.8,0,18.4-7.4,20.6-14.8l26.8,8.2c-4.4,17.4-20.8,34.6-47.4,34.6-29.6,0-53.4-21.8-53.4-52.6,0-31,23.2-52.8,52.4-52.8,27.4,0,43.4,16.8,47.8,34.6l-27.2,8.2c-2.2-7.6-8.2-14.8-20-14.8C477.6,140.9,467.4,149.7,467.4,165.7Z"/><path class="cls-2" d="M654,165.5c0,30.8-23,52.8-52.8,52.8-29.6,0-52.8-22-52.8-52.8s23.2-52.6,52.8-52.6C631,112.9,654,134.7,654,165.5Zm-30.4,0c0-16.8-10.8-24.6-22.4-24.6-11.4,0-22.4,7.8-22.4,24.6,0,16.6,11,24.8,22.4,24.8C612.8,190.3,623.6,182.3,623.6,165.5Z"/><path class="cls-2" d="M691.2,182.5c.4,6.8,5.2,13.4,15.6,13.4,7.8,0,11.6-4.2,11.6-8.6,0-3.6-2.4-6.6-9.8-8.2l-11.4-2.6c-21.2-4.6-29.6-16.6-29.6-30.6,0-18.2,16-33,38.2-33,28.8,0,38.8,18,39.8,29.6l-25.2,4.6c-.8-6.6-5-12.2-14.2-12.2-5.8,0-10.8,3.4-10.8,8.6,0,4.2,3.4,6.6,7.8,7.4l13.2,2.6c20.6,4.2,30.6,16.6,30.6,31.2,0,17-13,33.6-39.6,33.6-31.2,0-41.2-20.2-42-31.2Z"/><path class="cls-2" d="M849.79,143.3v-39h25.6v39h37.8v24.8h-37.8v39h-25.6v-39h-38V143.3Z"/></g></svg>