<svg xmlns="http://www.w3.org/2000/svg" viewBox="0 0 818 286"><defs><style>.cls-1{fill:#fbb03b;}.cls-2{fill:#fff;}</style></defs><g id="Layer_1" data-name="Layer 1"><path class="cls-1" d="M798,20V266H20V20H798M818,0H0V286H818V0Z"/><path class="cls-2" d="M119.91,73.5c28,0,44.19,16.2,44.19,38,0,14.6-9.2,26.6-20.8,30.4,12.8,3,25.2,14.8,25.2,33.2,0,23.2-17.6,40.2-44.4,40.2H66.91V73.5Zm-5,56.8c11,0,18.19-5.8,18.19-15.4,0-9.2-6.2-15.2-18.6-15.2H97.7v30.6Zm2.59,59.2c12.2,0,19.6-6.4,19.6-16.6,0-9.8-7.2-16.6-19.6-16.6H97.7v33.2Z"/><path class="cls-2" d="M212.5,157.9l23.4-3.6c5.4-.8,7.2-3.4,7.2-6.8,0-5.8-5-10.8-14.6-10.8-10.6,0-16.4,7.2-17,14.6l-26.4-5.4c1.2-14.2,14.4-33,43.6-33,32.2,0,44,18,44,38.4v48.6a97.68,97.68,0,0,0,1.2,15.4H246.5a48.62,48.62,0,0,1-1-11.2c-5.2,8.4-14.8,14-28,14-21.8,0-34.4-14.4-34.4-30.2C183.1,170.3,196.1,160.3,212.5,157.9Zm30.6,18.4v-4.4l-18.8,3c-6.4,1-11.2,4-11.2,11,0,5.2,3.4,10.2,11.8,10.2C233.9,196.1,243.1,191.7,243.1,176.3Z"/><path class="cls-2" d="M315.9,182.5c.4,6.8,5.2,13.4,15.6,13.4,7.8,0,11.6-4.2,11.6-8.6,0-3.6-2.4-6.6-9.8-8.2l-11.4-2.6c-21.2-4.6-29.6-16.6-29.6-30.6,0-18.2,16-33,38.2-33,28.8,0,38.8,18,39.8,29.6l-25.2,4.6c-.8-6.6-5-12.2-14.2-12.2-5.8,0-10.8,3.4-10.8,8.6,0,4.2,3.4,6.6,7.8,7.4l13.2,2.6c20.6,4.2,30.6,16.6,30.6,31.2,0,17-13,33.6-39.6,33.6-31.2,0-41.2-20.2-42-31.2Z"/><path class="cls-2" d="M406.5,67.7a17.8,17.8,0,1,1-17.6,17.8A17.88,17.88,0,0,1,406.5,67.7Zm-15,147.6V115.9h30.4v99.4Z"/><path class="cls-2" d="M471.5,165.7c0,15.8,10.59,24.6,23.19,24.6,11.81,0,18.4-7.4,20.61-14.8l26.79,8.2c-4.4,17.4-20.8,34.6-47.4,34.6-29.59,0-53.39-21.8-53.39-52.6,0-31,23.2-52.8,52.39-52.8,27.4,0,43.4,16.8,47.81,34.6l-27.2,8.2c-2.21-7.6-8.21-14.8-20-14.8C481.7,140.9,471.5,149.7,471.5,165.7Z"/><path class="cls-2" d="M658.09,165.5c0,30.8-23,52.8-52.79,52.8-29.6,0-52.8-22-52.8-52.8s23.2-52.6,52.8-52.6C635.09,112.9,658.09,134.7,658.09,165.5Zm-30.4,0c0-16.8-10.79-24.6-22.39-24.6-11.4,0-22.4,7.8-22.4,24.6,0,16.6,11,24.8,22.4,24.8C616.9,190.3,627.69,182.3,627.69,165.5Z"/><path class="cls-2" d="M695.3,182.5c.39,6.8,5.2,13.4,15.6,13.4,7.79,0,11.6-4.2,11.6-8.6,0-3.6-2.41-6.6-9.81-8.2l-11.4-2.6c-21.2-4.6-29.6-16.6-29.6-30.6,0-18.2,16-33,38.21-33,28.79,0,38.79,18,39.79,29.6l-25.19,4.6c-.81-6.6-5-12.2-14.21-12.2-5.79,0-10.79,3.4-10.79,8.6,0,4.2,3.4,6.6,7.79,7.4l13.21,2.6c20.59,4.2,30.59,16.6,30.59,31.2,0,17-13,33.6-39.59,33.6-31.2,0-41.2-20.2-42-31.2Z"/></g></svg>