<svg xmlns="http://www.w3.org/2000/svg" viewBox="0 0 812 286"><defs><style>.cls-1{fill:#fbb03b;}.cls-2{fill:#fff;}</style></defs><g id="Layer_1" data-name="Layer 1"><path class="cls-1" d="M792,20V266H20V20H792M812,0H0V286H812V0Z"/><path class="cls-2" d="M116.8,144.7c0-44.2,33.6-74.2,73.2-74.2,42.6,0,61.4,27.4,66,47.8l-29.8,9.4c-2.2-9.8-11.2-26.4-36.2-26.4-19,0-40.4,13.6-40.4,43.4,0,26.6,19.6,42,40.8,42,24.6,0,34.4-16.4,37.2-26.6l30.2,8.6c-4.6,19.6-23.4,49.6-67.4,49.6C149.6,218.3,116.8,188.9,116.8,144.7Z"/><path class="cls-2" d="M292.4,67.7a17.8,17.8,0,1,1-17.6,17.8A17.88,17.88,0,0,1,292.4,67.7Zm-15,147.6V115.9h30.4v99.4Z"/><path class="cls-2" d="M357.4,165.7c0,15.8,10.6,24.6,23.2,24.6,11.8,0,18.4-7.4,20.6-14.8l26.8,8.2c-4.4,17.4-20.8,34.6-47.4,34.6-29.6,0-53.4-21.8-53.4-52.6,0-31,23.2-52.8,52.4-52.8,27.4,0,43.4,16.8,47.8,34.6l-27.2,8.2c-2.2-7.6-8.2-14.8-20-14.8C367.6,140.9,357.4,149.7,357.4,165.7Z"/><path class="cls-2" d="M446.6,215.3V70.5H477V215.3Z"/><path class="cls-2" d="M602.2,165.5c0,30.8-23,52.8-52.8,52.8-29.6,0-52.8-22-52.8-52.8s23.2-52.6,52.8-52.6C579.2,112.9,602.2,134.7,602.2,165.5Zm-30.41,0c0-16.8-10.79-24.6-22.39-24.6-11.4,0-22.4,7.8-22.4,24.6,0,16.6,11,24.8,22.4,24.8C561,190.3,571.79,182.3,571.79,165.5Z"/><path class="cls-2" d="M639.4,182.5c.4,6.8,5.2,13.4,15.6,13.4,7.8,0,11.6-4.2,11.6-8.6,0-3.6-2.4-6.6-9.8-8.2l-11.4-2.6c-21.2-4.6-29.6-16.6-29.6-30.6,0-18.2,16-33,38.2-33,28.79,0,38.79,18,39.79,29.6l-25.19,4.6c-.8-6.6-5-12.2-14.2-12.2-5.8,0-10.8,3.4-10.8,8.6,0,4.2,3.4,6.6,7.8,7.4l13.2,2.6c20.6,4.2,30.6,16.6,30.6,31.2,0,17-13,33.6-39.6,33.6-31.2,0-41.2-20.2-42-31.2Z"/></g></svg>