<svg xmlns="http://www.w3.org/2000/svg" viewBox="0 0 920 256.43"><defs><style>.cls-1{fill:#e6e6e6;}.cls-2{fill:#39b54a;}</style></defs><g id="Layer_1" data-name="Layer 1"><path class="cls-1" d="M60.35,83.38H31V68.73h76.37V83.38H77.93v98.14h29.39v14.84H31V181.52h29.4Z"/><path class="cls-1" d="M139.74,98.32h15.14l.68,15.82a71.13,71.13,0,0,1,8.3-8.45,45.54,45.54,0,0,1,7.86-5.42,29.24,29.24,0,0,1,7.87-2.88,40.92,40.92,0,0,1,8.3-.83q15.13,0,22.9,8.94t7.76,26.9v64h-17V133.77q0-11.52-4.3-17t-12.79-5.52a20.28,20.28,0,0,0-6.1.93,22.27,22.27,0,0,0-6.21,3.22,52.19,52.19,0,0,0-7,6.2q-3.77,3.9-8.45,9.77v65h-17Z"/><path class="cls-1" d="M328.71,195a84.74,84.74,0,0,1-11.92,2.1,122.64,122.64,0,0,1-12.5.63q-18.45,0-27.54-8.35t-9.08-25.63V112.58H240.23V98.32h27.44v-27l17-4.39V98.32h44v14.26h-44v49.8q0,10.55,5.62,15.77t16.55,5.23a78.83,78.83,0,0,0,10.26-.74,96.3,96.3,0,0,0,11.62-2.29Z"/><path class="cls-1" d="M442.48,142.17c0,2.4,0,4.42-.1,6.05s-.17,3.16-.29,4.59H373.24q0,15,8.4,23.1T405.86,184q4.29,0,8.59-.34t8.3-.93c2.67-.39,5.22-.83,7.67-1.32s4.7-1,6.78-1.61v14a118.13,118.13,0,0,1-15.67,3.17,130,130,0,0,1-18.12,1.22q-12.59,0-21.68-3.42a37,37,0,0,1-14.89-9.91,40.74,40.74,0,0,1-8.59-15.92,75.1,75.1,0,0,1-2.79-21.33,63.53,63.53,0,0,1,3-19.58,49.26,49.26,0,0,1,8.69-16.21A41.19,41.19,0,0,1,400,96.56a47.8,47.8,0,0,1,18.16,3.22,36.6,36.6,0,0,1,13.33,9.13,38.93,38.93,0,0,1,8.2,14.36A60,60,0,0,1,442.48,142.17Zm-17.68-2.45a36.94,36.94,0,0,0-1.27-12,25.13,25.13,0,0,0-4.83-9.32,22.5,22.5,0,0,0-8.16-6.11,27.43,27.43,0,0,0-11.33-2.2,23.67,23.67,0,0,0-10.15,2.15,23.16,23.16,0,0,0-7.91,6.06,31,31,0,0,0-5.37,9.37,43,43,0,0,0-2.54,12Z"/><path class="cls-1" d="M473.63,98.32h15.53l.48,18.06q8.7-10.44,17.14-15.13a34.74,34.74,0,0,1,17-4.69q15.24,0,23.1,9.86t7.28,29.3H537q.29-12.89-3.76-18.7t-11.87-5.81a20.68,20.68,0,0,0-6.88,1.22,27.73,27.73,0,0,0-7.13,3.91,63.48,63.48,0,0,0-7.76,6.88,125.42,125.42,0,0,0-8.79,10.16v63H473.63Z"/><path class="cls-1" d="M579.59,98.32h15.13l.69,15.82a70.37,70.37,0,0,1,8.3-8.45,45.54,45.54,0,0,1,7.86-5.42,29.18,29.18,0,0,1,7.86-2.88,41.06,41.06,0,0,1,8.3-.83q15.13,0,22.9,8.94t7.76,26.9v64h-17V133.77q0-11.52-4.29-17t-12.8-5.52a20.33,20.33,0,0,0-6.1.93,22.23,22.23,0,0,0-6.2,3.22,51,51,0,0,0-7,6.2q-3.76,3.9-8.45,9.77v65h-17Z"/><path class="cls-1" d="M772.36,142.17q0,3.6-.1,6.05c-.06,1.63-.16,3.16-.29,4.59H703.12q0,15,8.4,23.1T735.74,184c2.86,0,5.73-.11,8.59-.34s5.63-.54,8.3-.93,5.23-.83,7.67-1.32,4.7-1,6.79-1.61v14a118.63,118.63,0,0,1-15.68,3.17,129.88,129.88,0,0,1-18.11,1.22q-12.6,0-21.68-3.42a37,37,0,0,1-14.9-9.91,40.87,40.87,0,0,1-8.59-15.92,75.48,75.48,0,0,1-2.78-21.33,63.23,63.23,0,0,1,3-19.58A48.89,48.89,0,0,1,697,111.75a41.15,41.15,0,0,1,32.86-15.19A47.8,47.8,0,0,1,748,99.78a36.51,36.51,0,0,1,13.33,9.13,39,39,0,0,1,8.21,14.36A60.34,60.34,0,0,1,772.36,142.17Zm-17.68-2.45a36.66,36.66,0,0,0-1.27-12,25.13,25.13,0,0,0-4.83-9.32,22.54,22.54,0,0,0-8.15-6.11,27.49,27.49,0,0,0-11.33-2.2,23.72,23.72,0,0,0-10.16,2.15,23.16,23.16,0,0,0-7.91,6.06,31.4,31.4,0,0,0-5.37,9.37,43.32,43.32,0,0,0-2.54,12Z"/><path class="cls-1" d="M878.51,195a84.6,84.6,0,0,1-11.91,2.1,122.64,122.64,0,0,1-12.5.63q-18.47,0-27.54-8.35t-9.08-25.63V112.58H790V98.32h27.44v-27l17-4.39V98.32h44v14.26h-44v49.8q0,10.55,5.61,15.77t16.56,5.23a78.81,78.81,0,0,0,10.25-.74,96.3,96.3,0,0,0,11.62-2.29Z"/><path class="cls-2" d="M910,10V246.43H10V10H910M920,0H0V256.43H920V0Z"/></g></svg>