<svg xmlns="http://www.w3.org/2000/svg" viewBox="0 0 1138 256.43"><defs><style>.cls-1{fill:#39b54a;}.cls-2{fill:#e6e6e6;}</style></defs><g id="Layer_1" data-name="Layer 1"><path class="cls-1" d="M1128,10V246.43H10V10H1128m10-10H0V256.43H1138V0Z"/><path class="cls-2" d="M103.62,50.14v88.67a49.49,49.49,0,0,1-2.44,15.58,34.48,34.48,0,0,1-19.92,21.53,44.64,44.64,0,0,1-17.68,3.22,58.84,58.84,0,0,1-7.76-.53,68.52,68.52,0,0,1-7.62-1.47,53.48,53.48,0,0,1-6.89-2.24A32,32,0,0,1,35.75,172V154.53a50.72,50.72,0,0,0,13.43,6.94A44.67,44.67,0,0,0,63.78,164q10.64,0,16.4-6.5t5.76-18.7V65.18H37.41v-15Z"/><path class="cls-2" d="M206.55,177.78l-.39-13.19A53,53,0,0,1,189.9,176a43.84,43.84,0,0,1-17.34,3.51,42.49,42.49,0,0,1-14.35-2.14,27.12,27.12,0,0,1-9.82-5.91,22.86,22.86,0,0,1-5.66-8.84,32.53,32.53,0,0,1-1.81-11q0-14.74,11-23.09t32.47-8.35h20.31v-8.59q0-8.7-5.56-13.92t-17-5.22a72.43,72.43,0,0,0-16.35,1.85,116.08,116.08,0,0,0-16.65,5.27V84.22q3.23-1.17,7.17-2.29t8.35-2q4.4-.89,9.18-1.42A86.25,86.25,0,0,1,183.5,78a60.39,60.39,0,0,1,16,2,32.46,32.46,0,0,1,12.06,5.95,26.2,26.2,0,0,1,7.57,10.06,35.65,35.65,0,0,1,2.63,14.26v67.58Zm-1.86-44.63H183.11a41.26,41.26,0,0,0-10.94,1.27,20.75,20.75,0,0,0-7.52,3.61,14.48,14.48,0,0,0-4.34,5.62,18.25,18.25,0,0,0-1.42,7.37,16.91,16.91,0,0,0,.88,5.42A12.21,12.21,0,0,0,162.6,161a13.73,13.73,0,0,0,5.08,3.17,21.8,21.8,0,0,0,7.62,1.17q5.87,0,13.43-3.56a65.9,65.9,0,0,0,16-11.28Z"/><path class="cls-2" d="M244.34,79.73h19.34l24,64.84,5.18,15.82,5.37-16.21,23.83-64.45h18.65l-38.48,98.05H282.72Z"/><path class="cls-2" d="M426.47,177.78l-.39-13.19A53,53,0,0,1,409.82,176a43.83,43.83,0,0,1-17.33,3.51,42.56,42.56,0,0,1-14.36-2.14,27.07,27.07,0,0,1-9.81-5.91,22.88,22.88,0,0,1-5.67-8.84,32.78,32.78,0,0,1-1.8-11q0-14.74,11-23.09t32.47-8.35h20.32v-8.59q0-8.7-5.57-13.92t-17-5.22a72.45,72.45,0,0,0-16.36,1.85,116.48,116.48,0,0,0-16.65,5.27V84.22q3.22-1.17,7.18-2.29c2.63-.75,5.42-1.42,8.35-2s6-1.06,9.18-1.42a86.07,86.07,0,0,1,9.66-.54,60.28,60.28,0,0,1,16,2,32.46,32.46,0,0,1,12.06,5.95,26.2,26.2,0,0,1,7.57,10.06,35.48,35.48,0,0,1,2.64,14.26v67.58Zm-1.85-44.63H403a41.13,41.13,0,0,0-10.93,1.27,20.67,20.67,0,0,0-7.52,3.61,14.41,14.41,0,0,0-4.35,5.62,18.42,18.42,0,0,0-1.42,7.37,16.91,16.91,0,0,0,.88,5.42,12.11,12.11,0,0,0,2.84,4.59,13.68,13.68,0,0,0,5.07,3.17,21.84,21.84,0,0,0,7.62,1.17q5.86,0,13.43-3.56a65.94,65.94,0,0,0,16-11.28Z"/><path class="cls-2" d="M555.18,143.21a32.86,32.86,0,0,1-3.71,15.91,32.37,32.37,0,0,1-10.35,11.38,47.91,47.91,0,0,1-16,6.79,87.68,87.68,0,0,1-20.55,2.24q-5.09,0-10.11-.39t-9.67-1c-3.09-.39-6-.85-8.74-1.37s-5.21-1.07-7.42-1.66v-16.8a90.28,90.28,0,0,0,16.45,4.3,124.2,124.2,0,0,0,20.76,1.56,66.63,66.63,0,0,0,14.3-1.32,27.5,27.5,0,0,0,9.67-3.9,15.54,15.54,0,0,0,5.47-6.3,20.1,20.1,0,0,0,1.71-8.5,13.84,13.84,0,0,0-2.88-8.83,28.49,28.49,0,0,0-7.57-6.55,69.58,69.58,0,0,0-10.69-5.27q-6-2.4-12.26-4.93c-4.17-1.7-8.25-3.53-12.26-5.52a50.86,50.86,0,0,1-10.69-7,32.47,32.47,0,0,1-7.57-9.52,27.55,27.55,0,0,1-2.88-13A32.19,32.19,0,0,1,473,70.65a30.88,30.88,0,0,1,8.49-11.28,43.92,43.92,0,0,1,14.8-8,68,68,0,0,1,21.53-3c2.15,0,4.47.1,7,.3s5,.47,7.62.83,5.11.76,7.62,1.22,4.83.94,7,1.46V67.82a117.65,117.65,0,0,0-15-3.28,99.62,99.62,0,0,0-14.55-1.12q-14.94,0-22,5a15.6,15.6,0,0,0-7,13.38,14,14,0,0,0,2.89,8.89,28.89,28.89,0,0,0,7.56,6.64,66.68,66.68,0,0,0,10.7,5.32q6,2.4,12.25,4.93T534,113.13a49.85,49.85,0,0,1,10.69,7.18A33.13,33.13,0,0,1,552.3,130,28.36,28.36,0,0,1,555.18,143.21Z"/><path class="cls-2" d="M659.58,174.16A72.67,72.67,0,0,1,646,177.92a82.79,82.79,0,0,1-14.4,1.22q-23.25,0-35.79-12.59t-12.55-36.82a58.7,58.7,0,0,1,3.61-21.09A47,47,0,0,1,597,92.43,44.93,44.93,0,0,1,612.6,82a53.12,53.12,0,0,1,20-3.66,88.93,88.93,0,0,1,14.26,1.08A59.17,59.17,0,0,1,659.58,83V99.16a54.25,54.25,0,0,0-12.94-4.83A60.71,60.71,0,0,0,633,92.82a31,31,0,0,0-12.35,2.49,30.09,30.09,0,0,0-10.2,7.17,34.06,34.06,0,0,0-6.94,11.43A43,43,0,0,0,601,129.14q0,17.78,8.65,26.62t24,8.83A57.33,57.33,0,0,0,647,163a55.34,55.34,0,0,0,12.55-4.69Z"/><path class="cls-2" d="M697.37,79.73H712.9l.48,18.07q8.7-10.45,17.14-15.14a34.74,34.74,0,0,1,17-4.69q15.24,0,23.1,9.87t7.28,29.29H760.75q.29-12.88-3.76-18.7t-11.87-5.81a20.68,20.68,0,0,0-6.88,1.22,28,28,0,0,0-7.13,3.91,63.48,63.48,0,0,0-7.76,6.88,125.42,125.42,0,0,0-8.79,10.16v63H697.37Z"/><path class="cls-2" d="M836.72,93.79h-29V79.73h46.19v83.89h29.2v14.16H804.5V163.62h32.22Zm6-55.17a13.58,13.58,0,0,1,5.28,1,13,13,0,0,1,4.24,2.88A14,14,0,0,1,855,46.77a13.76,13.76,0,0,1,0,10.4,13.76,13.76,0,0,1-2.84,4.3A12.66,12.66,0,0,1,848,64.35a14.15,14.15,0,0,1-10.55,0,12.6,12.6,0,0,1-4.25-2.88,13.74,13.74,0,0,1-2.83-4.3,13.64,13.64,0,0,1,0-10.4,14,14,0,0,1,2.83-4.25,12.89,12.89,0,0,1,4.25-2.88A13.53,13.53,0,0,1,842.68,38.62Z"/><path class="cls-2" d="M997.08,127a64.77,64.77,0,0,1-3.67,22.85,44.85,44.85,0,0,1-10.1,16.21,41.58,41.58,0,0,1-15.24,9.67A55.07,55.07,0,0,1,949,179a87.8,87.8,0,0,1-9.33-.49,71.69,71.69,0,0,1-9.42-1.66v41h-17V79.73h15.13l1.08,16.41Q936.82,86.08,945.12,82a40.47,40.47,0,0,1,18-4,29.88,29.88,0,0,1,14.75,3.52,30.56,30.56,0,0,1,10.64,9.91,46.93,46.93,0,0,1,6.45,15.43A87.39,87.39,0,0,1,997.08,127Zm-17.39.78a82.48,82.48,0,0,0-1.12-14.16,37.21,37.21,0,0,0-3.56-11,19.73,19.73,0,0,0-6.25-7.18,15.82,15.82,0,0,0-9.09-2.58,22.21,22.21,0,0,0-6.54,1,26.21,26.21,0,0,0-6.88,3.42,50.28,50.28,0,0,0-7.52,6.35,98.77,98.77,0,0,0-8.45,9.81V161a57.17,57.17,0,0,0,9.86,3.08,47.75,47.75,0,0,0,10.16,1.12q13.77,0,21.58-9.33T979.69,127.78Z"/><path class="cls-2" d="M1102.25,176.41a81.82,81.82,0,0,1-11.91,2.1,122.64,122.64,0,0,1-12.5.63q-18.46,0-27.54-8.35t-9.08-25.63V94h-27.44V79.73h27.44V52.78l17-4.4V79.73h44V94h-44v49.8q0,10.54,5.61,15.77t16.56,5.23a80.48,80.48,0,0,0,10.25-.73,98.39,98.39,0,0,0,11.62-2.3Z"/></g></svg>