<svg xmlns="http://www.w3.org/2000/svg" viewBox="0 0 1482 286"><defs><style>.cls-1{fill:#fbb03b;}.cls-2{fill:#fff;}</style></defs><g id="Layer_1" data-name="Layer 1"><path class="cls-1" d="M1462,20V266H20V20H1462m20-20H0V286H1482V0Z"/><path class="cls-2" d="M73.81,144.7c0-44.2,33.6-74.2,73.2-74.2,42.6,0,61.4,27.4,66,47.8l-29.8,9.4c-2.2-9.8-11.2-26.4-36.2-26.4-19,0-40.4,13.6-40.4,43.4,0,26.6,19.6,42,40.8,42,24.6,0,34.4-16.4,37.2-26.6l30.2,8.6c-4.6,19.6-23.4,49.6-67.4,49.6C106.61,218.3,73.81,188.9,73.81,144.7Z"/><path class="cls-2" d="M329.61,165.5c0,30.8-23,52.8-52.8,52.8-29.6,0-52.8-22-52.8-52.8s23.2-52.6,52.8-52.6C306.61,112.9,329.61,134.7,329.61,165.5Zm-30.4,0c0-16.8-10.8-24.6-22.4-24.6-11.4,0-22.4,7.8-22.4,24.6,0,16.6,11,24.8,22.4,24.8C288.41,190.3,299.21,182.3,299.21,165.5Z"/><path class="cls-2" d="M379.61,215.3h-30.4V115.9h29.4v11.4c5.4-9.4,17.6-14,27.8-14,25,0,36.2,17.8,36.2,39.6v62.4h-30.4V158.1c0-9.8-5.2-17.2-16.2-17.2-10,0-16.4,7.4-16.4,17.4Z"/><path class="cls-2" d="M566,197.5c0,9,.6,15.6.81,17.8h-29.2a68.38,68.38,0,0,1-.8-9.6c-4.6,6.8-14.6,11.8-26.6,11.8-28,0-49.2-21.6-49.2-52.2,0-29.6,20-51.8,48.2-51.8,17,0,24.4,6.4,26.8,10.2V70.5h30Zm-52-7.2c11.8,0,22.4-8.4,22.4-24.8,0-16.6-10.6-24.6-22.4-24.6s-22.4,8-22.4,24.6C491.61,181.9,502.21,190.3,514,190.3Z"/><path class="cls-2" d="M608.41,67.7a17.8,17.8,0,1,1-17.6,17.8A17.88,17.88,0,0,1,608.41,67.7Zm-15,147.6V115.9h30.4v99.4Z"/><path class="cls-2" d="M673.4,165.7c0,15.8,10.6,24.6,23.2,24.6,11.8,0,18.4-7.4,20.6-14.8l26.8,8.2c-4.4,17.4-20.8,34.6-47.4,34.6-29.6,0-53.4-21.8-53.4-52.6,0-31,23.2-52.8,52.4-52.8,27.4,0,43.4,16.8,47.8,34.6l-27.2,8.2c-2.2-7.6-8.2-14.8-20-14.8C683.6,140.9,673.4,149.7,673.4,165.7Z"/><path class="cls-2" d="M777.6,67.7A17.8,17.8,0,1,1,760,85.5,17.88,17.88,0,0,1,777.6,67.7Zm-15,147.6V115.9H793v99.4Z"/><path class="cls-2" d="M918,165.5c0,30.8-23,52.8-52.8,52.8-29.6,0-52.8-22-52.8-52.8s23.2-52.6,52.8-52.6C895,112.9,918,134.7,918,165.5Zm-30.4,0c0-16.8-10.8-24.6-22.4-24.6-11.4,0-22.4,7.8-22.4,24.6,0,16.6,11,24.8,22.4,24.8C876.8,190.3,887.6,182.3,887.6,165.5Z"/><path class="cls-2" d="M968,215.3H937.6V115.9H967v11.4c5.4-9.4,17.6-14,27.8-14,25,0,36.2,17.8,36.2,39.6v62.4h-30.4V158.1c0-9.8-5.2-17.2-16.2-17.2-10,0-16.4,7.4-16.4,17.4Z"/><path class="cls-2" d="M1080,157.9l23.39-3.6c5.4-.8,7.2-3.4,7.2-6.8,0-5.8-5-10.8-14.6-10.8-10.6,0-16.4,7.2-17,14.6l-26.41-5.4c1.2-14.2,14.41-33,43.6-33,32.2,0,44,18,44,38.4v48.6a97.68,97.68,0,0,0,1.2,15.4H1114a48.62,48.62,0,0,1-1-11.2c-5.2,8.4-14.8,14-28,14-21.81,0-34.41-14.4-34.41-30.2C1050.59,170.3,1063.59,160.3,1080,157.9Zm30.59,18.4v-4.4l-18.8,3c-6.4,1-11.2,4-11.2,11,0,5.2,3.41,10.2,11.8,10.2C1101.39,196.1,1110.59,191.7,1110.59,176.3Z"/><path class="cls-2" d="M1165.79,215.3V70.5h30.4V215.3Z"/><path class="cls-2" d="M1313.39,186.7c-4.8,17.2-20.6,31.6-45.8,31.6-27.4,0-51.8-19.6-51.8-53,0-32,23.8-52.4,49.6-52.4,30.8,0,49.8,19,49.8,51a63.44,63.44,0,0,1-.6,9.4h-69.2c.6,11.2,10.8,19.2,22.6,19.2,11,0,17.2-5.2,20-13Zm-27.6-33c-.4-7.6-5.6-16.8-20-16.8-12.8,0-19.2,9.4-19.8,16.8Z"/><path class="cls-2" d="M1352.39,182.5c.4,6.8,5.2,13.4,15.6,13.4,7.8,0,11.6-4.2,11.6-8.6,0-3.6-2.4-6.6-9.8-8.2l-11.4-2.6c-21.2-4.6-29.6-16.6-29.6-30.6,0-18.2,16-33,38.2-33,28.8,0,38.8,18,39.8,29.6l-25.2,4.6c-.8-6.6-5-12.2-14.2-12.2-5.8,0-10.8,3.4-10.8,8.6,0,4.2,3.4,6.6,7.8,7.4l13.2,2.6c20.6,4.2,30.6,16.6,30.6,31.2,0,17-13,33.6-39.6,33.6-31.2,0-41.2-20.2-42-31.2Z"/></g></svg>