<svg xmlns="http://www.w3.org/2000/svg" viewBox="0 0 500 500"><defs><style>.cls-1{fill:#fbb03b;}.cls-2{fill:#1a1a1a;}</style></defs><g id="Layer_1" data-name="Layer 1"><rect class="cls-1" width="500" height="500"/><path class="cls-2" d="M121.8,446.65V304.85h89.8v29.8H153.4v27h52.8v27.8H153.4v27.2h58.4v30Z"/><path class="cls-2" d="M307.6,347.65c-1-6.6-6.4-17.8-23.6-17.8-11.8,0-19.4,7.4-19.4,15.2,0,6.8,4.2,11.8,14,13.6l19,3.6c27,5,41,22.4,41,42.6,0,22.2-18.6,44.8-52.4,44.8-39.2,0-56-25.4-58-45.4l29-7c1.2,13,10,24.4,29.4,24.4,12.4,0,20-6,20-14.8,0-7.2-5.8-12.4-15.2-14.2l-19.4-3.6c-24-4.6-38.6-20.6-38.6-41.6,0-26.8,23.6-45.6,50.8-45.6,35.4,0,48.8,21.2,51.8,37.8Z"/><path class="cls-2" d="M445.4,344.85c-6-2.2-13.2-4.2-20.4-4.2-21.4,0-38.2,10.6-42,33,4.6-7.4,15.6-13.6,30.8-13.6,26.4,0,43.4,18,43.4,43.2,0,26.6-21,46.4-51.2,46.4-30.8,0-53.8-22.4-53.8-59.6,0-46,29.6-76.2,74.6-76.2,12.2,0,21.8,2.4,27,5.4Zm-39.8,78.4c11.2,0,20.4-7.4,20.4-18.8,0-11.6-9.2-19-20.4-19s-20.2,7.4-20.2,19C385.4,415.45,394.4,423.25,405.6,423.25Z"/></g></svg>