<svg xmlns="http://www.w3.org/2000/svg" viewBox="0 0 1060 201"><defs><style>.cls-1{fill:#39b54a;}.cls-2{fill:#e6e6e6;}</style></defs><g id="Layer_1" data-name="Layer 1"><path class="cls-1" d="M1054,6V195H6V6H1054m6-6H0V201H1060V0Z"/><path class="cls-2" d="M125.21,55.82H71V97.23h51.36v14.55H71v56.84H53.24V41h72Z"/><path class="cls-2" d="M162.81,70.57h15.53l.49,18.06Q187.52,78.19,196,73.5a34.74,34.74,0,0,1,17-4.69q15.23,0,23.09,9.86t7.28,29.3H226.19q.3-12.89-3.76-18.7t-11.86-5.81a20.74,20.74,0,0,0-6.89,1.22,27.73,27.73,0,0,0-7.13,3.91,63.48,63.48,0,0,0-7.76,6.88A127.42,127.42,0,0,0,180,105.63v63H162.81Z"/><path class="cls-2" d="M354.12,118.81a65,65,0,0,1-3.22,20.95,46.61,46.61,0,0,1-9.28,16.31,41.63,41.63,0,0,1-14.74,10.54,49.24,49.24,0,0,1-19.73,3.76,51.52,51.52,0,0,1-18.9-3.27,37.42,37.42,0,0,1-14.16-9.62,42.58,42.58,0,0,1-8.88-15.72,68.91,68.91,0,0,1-3.08-21.58,64.05,64.05,0,0,1,3.22-20.85,46.69,46.69,0,0,1,9.28-16.21,41.51,41.51,0,0,1,14.75-10.55,49.12,49.12,0,0,1,19.72-3.76A51.52,51.52,0,0,1,328,72.08a37.73,37.73,0,0,1,14.16,9.57A42.16,42.16,0,0,1,351,97.33,68.57,68.57,0,0,1,354.12,118.81Zm-17.38.78a56.56,56.56,0,0,0-2-15.87A32,32,0,0,0,329,92.39a23.57,23.57,0,0,0-9-6.83,29.66,29.66,0,0,0-11.86-2.3,26.76,26.76,0,0,0-13,3,25.8,25.8,0,0,0-8.89,8,34.46,34.46,0,0,0-5.08,11.57,58.25,58.25,0,0,0-1.61,13.82,57,57,0,0,0,2,15.92,31.94,31.94,0,0,0,5.72,11.38,23.71,23.71,0,0,0,9,6.83,29.61,29.61,0,0,0,11.92,2.3,26.64,26.64,0,0,0,13-3,25.8,25.8,0,0,0,8.89-8,34.46,34.46,0,0,0,5.08-11.57A58.73,58.73,0,0,0,336.74,119.59Z"/><path class="cls-2" d="M378.73,70.57h15.14l.68,15.82a70.37,70.37,0,0,1,8.3-8.45,46.11,46.11,0,0,1,7.86-5.42,29.18,29.18,0,0,1,7.86-2.88,41.09,41.09,0,0,1,8.31-.83q15.12,0,22.9,8.94t7.76,26.9v64h-17V106q0-11.52-4.3-17t-12.79-5.52a20.39,20.39,0,0,0-6.11.93,22.36,22.36,0,0,0-6.2,3.22,51.58,51.58,0,0,0-7,6.2q-3.76,3.91-8.45,9.77v65h-17Z"/><path class="cls-2" d="M567.7,167.25a85,85,0,0,1-11.92,2.1,122.64,122.64,0,0,1-12.5.63q-18.45,0-27.54-8.35T506.66,136V84.83H479.22V70.57h27.44V43.62l17-4.4V70.57H567.7V84.83H523.65v49.8q0,10.55,5.62,15.77t16.55,5.23a78.69,78.69,0,0,0,10.25-.74,96.07,96.07,0,0,0,11.63-2.29Z"/><path class="cls-2" d="M785.18,168.62H712.62V41h72.56V55.63H730V95.18h53v14.65H730v43.94h55.18Z"/><path class="cls-2" d="M818.57,70.57h15.14l.68,15.82a71.16,71.16,0,0,1,8.31-8.45,45.34,45.34,0,0,1,7.86-5.42,29.18,29.18,0,0,1,7.86-2.88,41,41,0,0,1,8.3-.83q15.13,0,22.9,8.94t7.76,26.9v64h-17V106q0-11.52-4.3-17T863.3,83.46a20.33,20.33,0,0,0-6.1.93,22.09,22.09,0,0,0-6.2,3.22,51.6,51.6,0,0,0-7,6.2q-3.75,3.91-8.44,9.77v65h-17Z"/><path class="cls-2" d="M923.55,121.64A66.67,66.67,0,0,1,927,99.43,45.68,45.68,0,0,1,936.69,83a41.06,41.06,0,0,1,15.14-10.16A53.48,53.48,0,0,1,971.5,69.4a72,72,0,0,1,9.23.58,59.13,59.13,0,0,1,8.94,1.86V30.63h17.09v138H991.52l-.58-18.56q-7.14,10.35-15.43,15.33a34.34,34.34,0,0,1-18,5A29.09,29.09,0,0,1,932.1,157a47.68,47.68,0,0,1-6.4-15.39A85.78,85.78,0,0,1,923.55,121.64Zm17.39-1.07q0,17.77,5.22,26.51t14.8,8.74q6.43,0,13.62-5.76T989.67,133V87.46a41.71,41.71,0,0,0-9.28-3,51,51,0,0,0-10.06-1q-13.86,0-21.63,9T940.94,120.57Z"/></g></svg>