<svg xmlns="http://www.w3.org/2000/svg" viewBox="0 0 1361 270"><defs><style>.cls-1{fill:#662d91;}.cls-2{font-size:200px;fill:#f2f2f2;font-family:CircularStd-Black, Circular Std;font-weight:800;}</style></defs><g id="Layer_1" data-name="Layer 1"><path class="cls-1" d="M1321.3,20.33a20,20,0,0,1,20,20v190a20,20,0,0,1-20,20H75.3a55.07,55.07,0,0,1-55-55V108.61L64.44,64.47l44.15-44.14H1321.3m0-20H100.3l-100,100v95a75,75,0,0,0,75,75h1246a40,40,0,0,0,40-40v-190a40,40,0,0,0-40-40Z"/><text class="cls-2" transform="translate(99.3 209.97)">HTML + CSS</text></g></svg>