<svg xmlns="http://www.w3.org/2000/svg" viewBox="0 0 1102 556"><defs><style>.cls-1{fill:#fbb03b;}.cls-2{fill:#f2f2f2;}.cls-3{fill:#1a1a1a;}</style></defs><g id="Layer_1" data-name="Layer 1"><rect class="cls-1" x="301" y="28" width="500" height="500" rx="30"/><path class="cls-2" d="M858.79,425.65a8.53,8.53,0,0,0,8.51-8.5v-22a8.53,8.53,0,0,1,8.5-8.5h8.59a8.53,8.53,0,0,1,8.51,8.5v22a8.53,8.53,0,0,0,8.5,8.5h20.8a8.53,8.53,0,0,1,8.5,8.5V442a8.53,8.53,0,0,1-8.5,8.5H901.4a8.53,8.53,0,0,0-8.5,8.5v22a8.54,8.54,0,0,1-8.51,8.51H875.8a8.53,8.53,0,0,1-8.5-8.51V459a8.53,8.53,0,0,0-8.51-8.5h-21a8.53,8.53,0,0,1-8.5-8.5v-7.8a8.53,8.53,0,0,1,8.5-8.5Z"/><path class="cls-2" d="M988.79,425.65a8.53,8.53,0,0,0,8.51-8.5v-22a8.53,8.53,0,0,1,8.5-8.5h8.59a8.53,8.53,0,0,1,8.51,8.5v22a8.53,8.53,0,0,0,8.5,8.5h20.8a8.53,8.53,0,0,1,8.5,8.5V442a8.53,8.53,0,0,1-8.5,8.5h-20.8a8.53,8.53,0,0,0-8.5,8.5v22a8.54,8.54,0,0,1-8.51,8.51h-8.59a8.53,8.53,0,0,1-8.5-8.51V459a8.53,8.53,0,0,0-8.51-8.5h-21a8.53,8.53,0,0,1-8.5-8.5v-7.8a8.53,8.53,0,0,1,8.5-8.5Z"/><path class="cls-3" d="M430,413.09l45-7.8v19.5c0,18.9,12,27.6,25.8,27.6,15.6,0,24.9-11.4,24.9-27.3V280.19h47.4v146.1c0,38.7-29.7,71.1-72,71.1-42,0-71.1-27.9-71.1-70.2Z"/><path class="cls-3" d="M721.31,344.39c-1.5-9.9-9.6-26.7-35.4-26.7-17.7,0-29.1,11.1-29.1,22.8,0,10.2,6.3,17.7,21,20.4l28.5,5.4c40.5,7.5,61.5,33.6,61.5,63.9,0,33.3-27.9,67.2-78.6,67.2-58.8,0-84-38.1-87-68.1l43.5-10.5c1.8,19.5,15,36.6,44.1,36.6,18.6,0,30-9,30-22.2,0-10.8-8.7-18.6-22.8-21.3l-29.1-5.4c-36-6.9-57.9-30.9-57.9-62.4,0-40.2,35.4-68.4,76.2-68.4,53.1,0,73.2,31.8,77.7,56.7Z"/></g></svg>