<svg xmlns="http://www.w3.org/2000/svg" viewBox="0 0 452 201"><defs><style>.cls-1{fill:#39b54a;}.cls-2{fill:#e6e6e6;}</style></defs><g id="Layer_1" data-name="Layer 1"><path class="cls-1" d="M446,6V195H6V6H446m6-6H0V201H452V0Z"/><path class="cls-2" d="M169.7,41l-8.59,127.64H138.55l-15.82-45.41-4.4-14.56-4.59,15.73L99.1,168.62H77.32L68.53,41H84.94l5,86.81,1.46,23.83,6.15-20.21L113,84h12l17.78,50.79,6,16.79L149.1,134,154.17,41Z"/><path class="cls-2" d="M272.53,114.42c0,2.41,0,4.42-.09,6s-.17,3.16-.3,4.59H203.29q0,15,8.4,23.1t24.22,8.05c2.87,0,5.73-.11,8.6-.34s5.63-.54,8.3-.93,5.22-.83,7.66-1.31,4.71-1,6.79-1.62v14a118.46,118.46,0,0,1-15.67,3.17,130,130,0,0,1-18.12,1.22q-12.6,0-21.68-3.41A37.13,37.13,0,0,1,196.9,157a40.79,40.79,0,0,1-8.6-15.91,75.6,75.6,0,0,1-2.78-21.34,63.23,63.23,0,0,1,3-19.58A48.89,48.89,0,0,1,197.19,84a41.19,41.19,0,0,1,32.86-15.19A47.85,47.85,0,0,1,248.22,72a36.68,36.68,0,0,1,13.33,9.13,39.07,39.07,0,0,1,8.2,14.36A60.05,60.05,0,0,1,272.53,114.42ZM254.86,112a37.25,37.25,0,0,0-1.27-12,25.29,25.29,0,0,0-4.84-9.32,22.54,22.54,0,0,0-8.15-6.11,27.46,27.46,0,0,0-11.33-2.2,23.64,23.64,0,0,0-10.15,2.15,23.07,23.07,0,0,0-7.91,6.06,31.21,31.21,0,0,0-5.38,9.37,43.68,43.68,0,0,0-2.54,12Z"/><path class="cls-2" d="M383.47,117.83a65.71,65.71,0,0,1-3.37,21.83A46,46,0,0,1,370.53,156a41,41,0,0,1-15.09,10.25,53.26,53.26,0,0,1-20,3.57,99.4,99.4,0,0,1-17.77-1.66,91.51,91.51,0,0,1-18-5.28V30.63h17v38l-.78,18.16q7.33-9.87,15.68-13.92a40.5,40.5,0,0,1,17.92-4,29.87,29.87,0,0,1,14.74,3.52,30.68,30.68,0,0,1,10.65,9.91,46.92,46.92,0,0,1,6.44,15.43A87.36,87.36,0,0,1,383.47,117.83Zm-17.38.79A82.43,82.43,0,0,0,365,104.46a36.92,36.92,0,0,0-3.56-11,19.64,19.64,0,0,0-6.25-7.18,15.82,15.82,0,0,0-9.08-2.59,22.17,22.17,0,0,0-6.54,1,26.26,26.26,0,0,0-6.89,3.42,50.79,50.79,0,0,0-7.52,6.35,98.94,98.94,0,0,0-8.45,9.81v47.56a65.56,65.56,0,0,0,10.16,3.07,46.49,46.49,0,0,0,9.86,1.13,33.69,33.69,0,0,0,11.19-1.86,23,23,0,0,0,9.37-6.2,31.17,31.17,0,0,0,6.45-11.52A57.2,57.2,0,0,0,366.09,118.62Z"/></g></svg>